# Blender v3.1.2 OBJ File: 'marker.blend'
# www.blender.org
mtllib marker2.mtl
o outer_Sphere
v -0.127681 -0.308250 -0.459226
v -0.206593 -0.498759 -0.175409
v -0.206593 -0.498759 0.175409
v -0.127681 -0.308250 0.459226
v -0.308250 -0.127681 -0.459226
v -0.498759 -0.206593 -0.175409
v -0.498759 -0.206593 0.175409
v -0.308250 -0.127681 0.459226
v -0.308250 0.127681 -0.459226
v -0.498759 0.206593 -0.175409
v -0.498759 0.206593 0.175409
v -0.308250 0.127681 0.459226
v -0.127681 0.308250 -0.459226
v -0.206593 0.498759 -0.175409
v -0.206593 0.498759 0.175409
v -0.127681 0.308250 0.459226
v 0.127681 0.308250 -0.459226
v 0.206593 0.498759 -0.175409
v 0.206593 0.498759 0.175409
v 0.127681 0.308250 0.459226
v 0.308250 0.127681 -0.459226
v 0.498759 0.206593 -0.175409
v 0.498759 0.206593 0.175409
v 0.308250 0.127681 0.459226
v 0.308250 -0.127681 -0.459226
v 0.498759 -0.206593 -0.175409
v 0.498759 -0.206593 0.175409
v 0.308250 -0.127681 0.459226
v 0.127681 -0.308250 -0.459226
v 0.206593 -0.498759 -0.175409
v 0.206593 -0.498759 0.175409
v 0.127681 -0.308250 0.459226
v -0.153218 0.289296 -0.551072
v -0.247911 0.517907 -0.210491
v -0.247911 0.517907 0.210491
v -0.153218 0.289296 0.551072
v 0.153218 0.289296 -0.551072
v 0.247911 0.517907 -0.210491
v 0.247911 0.517907 0.210491
v 0.153218 0.289296 0.551072
v 0.298725 0.140450 -0.505149
v 0.508285 0.227252 -0.192950
v 0.508285 0.227252 0.192950
v 0.298725 0.140449 0.505149
v 0.298725 -0.140449 -0.505149
v 0.508285 -0.227252 -0.192950
v 0.508285 -0.227252 0.192950
v 0.298725 -0.140449 0.505149
v -0.140450 -0.298725 -0.505149
v -0.227252 -0.508285 -0.192950
v -0.227252 -0.508285 0.192950
v -0.140449 -0.298725 0.505149
v 0.140450 -0.298725 -0.505149
v 0.227252 -0.508285 -0.192950
v 0.227252 -0.508285 0.192950
v 0.140450 -0.298725 0.505149
v -0.298725 -0.140449 -0.505149
v -0.508285 -0.227252 -0.192950
v -0.508285 -0.227252 0.192950
v -0.298725 -0.140450 0.505149
v -0.298725 0.140450 -0.505149
v -0.508285 0.227252 -0.192950
v -0.508285 0.227252 0.192950
v -0.298725 0.140450 0.505149
vt 0.202437 0.375392
vt 0.194423 0.375565
vt 0.196297 0.363302
vt 0.200612 0.363490
vt 0.202442 0.389117
vt 0.194458 0.389281
vt 0.185103 0.375692
vt 0.185113 0.389414
vt 0.177130 0.389177
vt 0.177091 0.375448
vt 0.200577 0.401028
vt 0.196322 0.400906
vt 0.167259 0.382504
vt 0.169691 0.367812
vt 0.174869 0.375551
vt 0.173282 0.383703
vt 0.160862 0.379035
vt 0.163149 0.363669
vt 0.155685 0.371974
vt 0.156991 0.363850
vt 0.179058 0.363305
vt 0.183365 0.363676
vt 0.183157 0.401209
vt 0.178905 0.400921
vt 0.211359 0.375392
vt 0.203346 0.375565
vt 0.205219 0.363302
vt 0.209534 0.363490
vt 0.211365 0.389117
vt 0.203380 0.389281
vt 0.209499 0.401028
vt 0.205244 0.400906
vt 0.167488 0.384414
vt 0.174659 0.386248
vt 0.174870 0.397825
vt 0.167187 0.401967
vt 0.160063 0.380365
vt 0.158579 0.400208
vt 0.202909 0.406154
vt 0.210469 0.402663
vt 0.210469 0.420940
vt 0.202909 0.417449
vt 0.154006 0.372019
vt 0.155588 0.361958
vt 0.162858 0.361640
vt 0.170526 0.366529
vt 0.176449 0.387084
vt 0.176624 0.396732
vt 0.176624 0.375604
vt 0.185578 0.377229
vt 0.193955 0.377229
vt 0.193955 0.391453
vt 0.185578 0.391453
vt 0.187178 0.363369
vt 0.192355 0.363369
vt 0.187178 0.405313
vt 0.192355 0.405313
vt 0.187413 0.361640
vt 0.192119 0.361640
vt 0.178638 0.402521
vt 0.176689 0.389759
vt 0.176657 0.374861
vt 0.185545 0.390006
vt 0.183400 0.402818
vt 0.178790 0.361640
vt 0.185545 0.375118
vt 0.183652 0.362062
vt 0.168830 0.402000
vt 0.175760 0.405199
vt 0.175760 0.415553
vt 0.168830 0.418753
vt 0.161717 0.402000
vt 0.161717 0.418753
vt 0.154787 0.405199
vt 0.154787 0.415553
vt 0.211799 0.374815
vt 0.211799 0.389706
vt 0.176624 0.405670
vt 0.176624 0.415083
vt 0.204992 0.402515
vt 0.202942 0.389865
vt 0.209758 0.402631
vt 0.202909 0.374981
vt 0.204935 0.361640
vt 0.209806 0.361874
vt 0.211832 0.377229
vt 0.213431 0.363369
vt 0.218608 0.363369
vt 0.220208 0.377229
vt 0.211832 0.391453
vt 0.220208 0.391453
vt 0.195947 0.405863
vt 0.202877 0.402663
vt 0.202877 0.419417
vt 0.195947 0.416217
vt 0.213667 0.361640
vt 0.218373 0.361640
vt 0.196070 0.402515
vt 0.194020 0.389866
vt 0.193987 0.374981
vt 0.196013 0.361640
vt 0.202877 0.374815
vt 0.202877 0.389706
vt 0.200835 0.402631
vt 0.200884 0.361874
vn -0.8303 0.0000 -0.5573
vn -1.0000 0.0000 0.0000
vn 1.0000 0.0000 0.0000
vn -0.8303 -0.0000 0.5573
vn 0.0000 0.8303 -0.5573
vn -0.0000 1.0000 0.0000
vn -0.0000 0.8303 0.5573
vn 0.8303 0.0000 -0.5573
vn 0.8303 -0.0000 0.5573
vn 0.0000 -0.8303 -0.5573
vn 0.0000 -1.0000 0.0000
vn 0.0000 -0.8303 0.5573
vn 0.0000 0.9794 0.2021
vn -0.4205 0.9073 0.0000
vn 0.6079 0.7271 0.3191
vn 0.6079 0.7271 -0.3191
vn 0.0000 0.9794 -0.2021
vn -0.6079 0.7271 0.3191
vn -0.6079 0.7271 -0.3191
vn 0.4205 0.9073 0.0000
vn 0.9792 -0.0000 -0.2031
vn 0.7276 0.6069 0.3197
vn 0.9081 0.4187 0.0000
vn 0.7276 -0.6069 0.3197
vn 0.9792 -0.0000 0.2031
vn 0.7276 0.6069 -0.3197
vn 0.9081 -0.4187 -0.0000
vn 0.7276 -0.6069 -0.3197
vn -0.4187 -0.9081 0.0000
vn 0.0000 -0.9792 -0.2031
vn 0.6069 -0.7276 0.3197
vn -0.6069 -0.7276 0.3197
vn 0.6069 -0.7276 -0.3197
vn -0.6069 -0.7276 -0.3197
vn 0.0000 -0.9792 0.2031
vn 0.4187 -0.9081 0.0000
vn -0.9792 -0.0000 -0.2031
vn -0.7276 -0.6069 0.3197
vn -0.7276 -0.6069 -0.3197
vn -0.9081 0.4187 0.0000
vn -0.9792 0.0000 0.2031
vn -0.9081 -0.4187 0.0000
vn -0.7276 0.6069 0.3197
vn -0.7276 0.6069 -0.3197
usemtl Material.001
s off
f 6/1/1 10/2/1 9/3/1 5/4/1
f 7/5/2 11/6/2 10/2/2 6/1/2
f 22/7/3 23/8/3 27/9/3 26/10/3
f 8/11/4 12/12/4 11/6/4 7/5/4
f 14/13/5 18/14/5 17/15/5 13/16/5
f 15/17/6 19/18/6 18/14/6 14/13/6
f 16/19/7 20/20/7 19/18/7 15/17/7
f 22/7/8 26/10/8 25/21/8 21/22/8
f 24/23/9 28/24/9 27/9/9 23/8/9
f 30/25/10 2/26/10 1/27/10 29/28/10
f 31/29/11 3/30/11 2/26/11 30/25/11
f 32/31/12 4/32/12 3/30/12 31/29/12
f 34/33/12 33/34/12 37/35/12 38/36/12
f 35/37/11 34/33/11 38/36/11 39/38/11
f 36/39/10 35/40/10 39/41/10 40/42/10
f 20/20/13 16/19/13 36/43/13 40/44/13
f 18/14/14 19/18/14 39/45/14 38/46/14
f 16/19/15 15/17/15 35/37/15 36/43/15
f 14/13/16 13/16/16 33/34/16 34/33/16
f 13/47/17 17/48/17 37/35/17 33/34/17
f 19/18/18 20/20/18 40/44/18 39/45/18
f 17/15/19 18/14/19 38/46/19 37/49/19
f 15/17/20 14/13/20 34/33/20 35/37/20
f 42/50/2 46/51/2 47/52/2 43/53/2
f 42/50/4 41/54/4 45/55/4 46/51/4
f 44/56/1 43/53/1 47/52/1 48/57/1
f 21/58/21 25/59/21 45/55/21 41/54/21
f 27/9/22 28/24/22 48/60/22 47/61/22
f 26/10/23 27/9/23 47/61/23 46/62/23
f 24/23/24 23/8/24 43/63/24 44/64/24
f 28/24/25 24/23/25 44/64/25 48/60/25
f 25/21/26 26/10/26 46/62/26 45/65/26
f 23/8/27 22/7/27 42/66/27 43/63/27
f 22/7/28 21/22/28 41/67/28 42/66/28
f 54/68/7 53/69/7 49/70/7 50/71/7
f 55/72/6 54/68/6 50/71/6 51/73/6
f 56/74/5 55/72/5 51/73/5 52/75/5
f 31/29/29 30/25/29 54/76/29 55/77/29
f 29/78/30 1/79/30 49/70/30 53/69/30
f 3/30/31 4/32/31 52/80/31 51/81/31
f 32/31/32 31/29/32 55/77/32 56/82/32
f 1/27/33 2/26/33 50/83/33 49/84/33
f 30/25/34 29/28/34 53/85/34 54/76/34
f 4/32/35 32/31/35 56/82/35 52/80/35
f 2/26/36 3/30/36 51/81/36 50/83/36
f 58/86/9 57/87/9 61/88/9 62/89/9
f 59/90/3 58/86/3 62/89/3 63/91/3
f 60/92/8 59/93/8 63/94/8 64/95/8
f 5/96/37 9/97/37 61/88/37 57/87/37
f 11/6/38 12/12/38 64/98/38 63/99/38
f 9/3/39 10/2/39 62/100/39 61/101/39
f 7/5/40 6/1/40 58/102/40 59/103/40
f 12/12/41 8/11/41 60/104/41 64/98/41
f 10/2/42 11/6/42 63/99/42 62/100/42
f 8/11/43 7/5/43 59/103/43 60/104/43
f 6/1/44 5/4/44 57/105/44 58/102/44
o Sphere_Sphere.001
v 0.093074 0.224700 0.243213
v 0.121607 0.293584 0.131626
v 0.121607 0.293584 -0.131626
v 0.050371 0.121607 -0.317773
v 0.093074 0.093074 0.317773
v 0.171978 0.171978 0.243213
v 0.224700 0.224700 0.131626
v 0.243213 0.243213 -0.000000
v 0.224700 0.224700 -0.131626
v 0.171978 0.171978 -0.243213
v 0.093074 0.093074 -0.317773
v 0.121607 0.050371 0.317773
v 0.224700 0.093074 0.243213
v 0.293584 0.121607 0.131626
v 0.317773 0.131626 -0.000000
v 0.293584 0.121607 -0.131626
v 0.224700 0.093074 -0.243213
v 0.121607 0.050371 -0.317773
v 0.131626 -0.000000 0.317773
v 0.243213 -0.000000 0.243213
v 0.317773 -0.000000 0.131626
v 0.343955 -0.000000 -0.000000
v 0.317773 -0.000000 -0.131626
v 0.243213 -0.000000 -0.243213
v 0.131626 -0.000000 -0.317773
v 0.121607 -0.050371 0.317773
v 0.224700 -0.093074 0.243213
v 0.293584 -0.121607 0.131626
v 0.317773 -0.131626 -0.000000
v 0.293584 -0.121607 -0.131626
v 0.224700 -0.093074 -0.243213
v 0.121607 -0.050371 -0.317773
v 0.093074 -0.093074 0.317773
v 0.171978 -0.171978 0.243213
v 0.224700 -0.224700 0.131626
v 0.243213 -0.243213 -0.000000
v 0.224700 -0.224700 -0.131626
v 0.171978 -0.171978 -0.243213
v 0.093074 -0.093074 -0.317773
v 0.050371 -0.121607 0.317773
v 0.093074 -0.224700 0.243213
v 0.121607 -0.293584 0.131626
v 0.131626 -0.317773 -0.000000
v 0.121607 -0.293584 -0.131626
v 0.093074 -0.224700 -0.243213
v 0.050371 -0.121607 -0.317773
v -0.000000 -0.131626 0.317773
v -0.000000 -0.243213 0.243213
v -0.000000 -0.317773 0.131626
v -0.000000 -0.343955 -0.000000
v -0.000000 -0.317773 -0.131626
v -0.000000 -0.243213 -0.243213
v -0.000000 -0.131626 -0.317773
v -0.000000 -0.000000 0.343955
v -0.050371 -0.121607 0.317773
v -0.093074 -0.224700 0.243213
v -0.121607 -0.293584 0.131626
v -0.131626 -0.317773 -0.000000
v -0.121607 -0.293584 -0.131626
v -0.093074 -0.224700 -0.243213
v -0.050371 -0.121607 -0.317773
v -0.093074 -0.093074 0.317773
v -0.171978 -0.171978 0.243213
v -0.224700 -0.224700 0.131626
v -0.243213 -0.243213 -0.000000
v -0.224700 -0.224700 -0.131626
v -0.171978 -0.171978 -0.243213
v -0.093074 -0.093074 -0.317773
v -0.121607 -0.050371 0.317773
v -0.224700 -0.093074 0.243213
v -0.293584 -0.121606 0.131626
v -0.317773 -0.131626 -0.000000
v -0.293584 -0.121606 -0.131626
v -0.224700 -0.093074 -0.243213
v -0.121607 -0.050371 -0.317773
v -0.000000 -0.000000 -0.343955
v -0.131626 0.000000 0.317773
v -0.243213 0.000000 0.243213
v -0.317773 0.000000 0.131626
v -0.343955 0.000000 -0.000000
v -0.317773 0.000000 -0.131626
v -0.243213 0.000000 -0.243213
v -0.131626 0.000000 -0.317773
v -0.121607 0.050371 0.317773
v -0.224700 0.093074 0.243213
v -0.293584 0.121607 0.131626
v -0.317773 0.131626 -0.000000
v -0.293584 0.121607 -0.131626
v -0.224700 0.093074 -0.243213
v -0.121607 0.050371 -0.317773
v -0.093074 0.093074 0.317773
v -0.171978 0.171978 0.243213
v -0.224700 0.224700 0.131626
v -0.243213 0.243213 -0.000000
v -0.224700 0.224700 -0.131626
v -0.171978 0.171978 -0.243213
v -0.093074 0.093074 -0.317773
v -0.050371 0.121607 0.317773
v -0.093074 0.224700 0.243213
v -0.121606 0.293584 0.131626
v -0.131626 0.317773 -0.000000
v -0.121606 0.293584 -0.131626
v -0.093074 0.224700 -0.243213
v -0.050371 0.121607 -0.317773
v 0.000000 0.131626 0.317773
v 0.000000 0.243213 0.243213
v 0.000000 0.317773 0.131626
v 0.000000 0.343955 0.000000
v 0.000000 0.317773 -0.131626
v 0.000000 0.243213 -0.243213
v 0.000000 0.131626 -0.317773
v 0.050371 0.121607 0.317773
v 0.131626 0.317773 -0.000000
v 0.093074 0.224700 -0.243213
vt 0.815014 0.168381
vt 0.819111 0.168614
vt 0.819716 0.177969
vt 0.814188 0.177476
vt 0.823015 0.166758
vt 0.826774 0.162539
vt 0.829288 0.168058
vt 0.824847 0.174823
vt 0.830304 0.154773
vt 0.833732 0.139867
vt 0.832481 0.157061
vt 0.801972 0.143073
vt 0.806066 0.158684
vt 0.803823 0.161744
vt 0.810641 0.165630
vt 0.808587 0.172618
vt 0.800551 0.164052
vt 0.812593 0.190315
vt 0.804995 0.181243
vt 0.828044 0.185425
vt 0.820776 0.191312
vt 0.835396 0.158325
vt 0.833282 0.173912
vt 0.839067 0.157474
vt 0.839819 0.179077
vt 0.798306 0.191812
vt 0.795868 0.164321
vt 0.822842 0.212727
vt 0.809144 0.210419
vt 0.834166 0.200206
vt 0.796652 0.125468
vt 0.795907 0.103891
vt 0.802435 0.109055
vt 0.800319 0.124625
vt 0.801557 0.082793
vt 0.812866 0.070292
vt 0.814930 0.091679
vt 0.807670 0.097558
vt 0.826547 0.072591
vt 0.837376 0.091167
vt 0.830697 0.101731
vt 0.823105 0.092673
vt 0.839819 0.118625
vt 0.835141 0.118901
vt 0.831873 0.121212
vt 0.803231 0.125892
vt 0.810863 0.108151
vt 0.806425 0.114907
vt 0.821513 0.105500
vt 0.815989 0.105009
vt 0.827110 0.110351
vt 0.812692 0.116209
vt 0.808935 0.120424
vt 0.820688 0.114588
vt 0.816594 0.114355
vt 0.829632 0.124272
vt 0.825058 0.117335
vt 0.805406 0.128181
vt 0.810566 0.125429
vt 0.806987 0.130918
vt 0.816984 0.121502
vt 0.813822 0.122683
vt 0.823844 0.123152
vt 0.820247 0.121578
vt 0.828117 0.127541
vt 0.817265 0.127353
vt 0.814557 0.128151
vt 0.823131 0.128169
vt 0.820026 0.127320
vt 0.827119 0.130804
vt 0.808109 0.133832
vt 0.811648 0.129984
vt 0.808870 0.136803
vt 0.815053 0.132989
vt 0.812362 0.134209
vt 0.819948 0.132305
vt 0.817486 0.132426
vt 0.826509 0.133995
vt 0.822746 0.132655
vt 0.819976 0.136851
vt 0.817676 0.137054
vt 0.826204 0.137104
vt 0.822599 0.136809
vt 0.812813 0.138230
vt 0.809335 0.139793
vt 0.815388 0.137461
vt 0.813053 0.142168
vt 0.809541 0.142803
vt 0.817852 0.141478
vt 0.815606 0.141773
vt 0.822651 0.140788
vt 0.820098 0.141184
vt 0.826163 0.140152
vt 0.822892 0.144727
vt 0.820316 0.145496
vt 0.826370 0.143161
vt 0.809499 0.145850
vt 0.815728 0.146107
vt 0.813104 0.146148
vt 0.818028 0.145904
vt 0.809193 0.148960
vt 0.815756 0.150654
vt 0.812957 0.150303
vt 0.820652 0.149969
vt 0.818218 0.150533
vt 0.826836 0.146151
vt 0.823343 0.148748
vt 0.827598 0.149123
vt 0.824059 0.152975
vt 0.812571 0.154791
vt 0.808582 0.152151
vt 0.818440 0.155609
vt 0.815677 0.155641
vt 0.821148 0.154809
vt 0.811857 0.159810
vt 0.807583 0.155416
vt 0.818720 0.161463
vt 0.815456 0.161386
vt 0.825141 0.157532
vt 0.821885 0.160280
vt 0.828721 0.152036
vn 0.5453 0.8161 -0.1915
vn 0.4647 0.6954 0.5481
vn 0.1104 0.1653 0.9800
vn 0.1104 0.1653 -0.9800
vn 0.4647 0.6954 -0.5481
vn 0.5453 0.8161 0.1915
vn 0.3128 0.4681 0.8264
vn 0.3128 0.4681 -0.8264
vn 0.1653 0.1104 -0.9800
vn 0.6954 0.4647 -0.5481
vn 0.8161 0.5453 0.1915
vn 0.4681 0.3128 0.8264
vn 0.4681 0.3128 -0.8264
vn 0.8161 0.5453 -0.1915
vn 0.6954 0.4647 0.5481
vn 0.1653 0.1104 0.9800
vn 0.5522 0.1098 0.8264
vn 0.5522 0.1098 -0.8264
vn 0.9626 0.1915 -0.1915
vn 0.8203 0.1632 0.5481
vn 0.1949 0.0388 0.9800
vn 0.1949 0.0388 -0.9800
vn 0.8203 0.1632 -0.5481
vn 0.9626 0.1915 0.1915
vn 0.5522 -0.1098 -0.8264
vn 0.9626 -0.1915 -0.1915
vn 0.8203 -0.1632 0.5481
vn 0.1949 -0.0388 0.9800
vn 0.1949 -0.0388 -0.9800
vn 0.8203 -0.1632 -0.5481
vn 0.9626 -0.1915 0.1915
vn 0.5522 -0.1098 0.8264
vn 0.1653 -0.1104 0.9800
vn 0.1653 -0.1104 -0.9800
vn 0.6954 -0.4647 -0.5481
vn 0.8161 -0.5453 0.1915
vn 0.4681 -0.3128 0.8264
vn 0.4681 -0.3128 -0.8264
vn 0.8161 -0.5453 -0.1915
vn 0.6954 -0.4647 0.5481
vn 0.4647 -0.6954 -0.5481
vn 0.5453 -0.8161 0.1915
vn 0.3128 -0.4681 0.8264
vn 0.3128 -0.4681 -0.8264
vn 0.5453 -0.8161 -0.1915
vn 0.4647 -0.6954 0.5481
vn 0.1104 -0.1653 0.9800
vn 0.1104 -0.1653 -0.9800
vn 0.1098 -0.5522 -0.8264
vn 0.1915 -0.9626 -0.1915
vn 0.1632 -0.8203 0.5481
vn 0.0388 -0.1949 0.9800
vn 0.0388 -0.1949 -0.9800
vn 0.1632 -0.8203 -0.5481
vn 0.1915 -0.9626 0.1915
vn 0.1098 -0.5522 0.8264
vn -0.1915 -0.9626 -0.1915
vn -0.1632 -0.8203 0.5481
vn -0.0388 -0.1949 0.9800
vn -0.0388 -0.1949 -0.9800
vn -0.1632 -0.8203 -0.5481
vn -0.1915 -0.9626 0.1915
vn -0.1098 -0.5522 0.8264
vn -0.1098 -0.5522 -0.8264
vn -0.1104 -0.1653 -0.9800
vn -0.4647 -0.6954 -0.5481
vn -0.5453 -0.8161 0.1915
vn -0.3128 -0.4681 0.8264
vn -0.3128 -0.4681 -0.8264
vn -0.5453 -0.8161 -0.1915
vn -0.4647 -0.6954 0.5481
vn -0.1104 -0.1653 0.9800
vn -0.8161 -0.5453 0.1915
vn -0.4681 -0.3128 0.8264
vn -0.4681 -0.3128 -0.8264
vn -0.8161 -0.5453 -0.1915
vn -0.6954 -0.4647 0.5481
vn -0.1653 -0.1104 0.9800
vn -0.1653 -0.1104 -0.9800
vn -0.6954 -0.4647 -0.5481
vn -0.5522 -0.1098 -0.8264
vn -0.9626 -0.1915 -0.1915
vn -0.8203 -0.1632 0.5481
vn -0.1949 -0.0388 0.9800
vn -0.1949 -0.0388 -0.9800
vn -0.8203 -0.1632 -0.5481
vn -0.9626 -0.1915 0.1915
vn -0.5522 -0.1098 0.8264
vn -0.8203 0.1632 0.5481
vn -0.1949 0.0388 0.9800
vn -0.1949 0.0388 -0.9800
vn -0.8203 0.1632 -0.5481
vn -0.9626 0.1915 0.1915
vn -0.5522 0.1098 0.8264
vn -0.5522 0.1098 -0.8264
vn -0.9626 0.1915 -0.1915
vn -0.1653 0.1104 -0.9800
vn -0.6954 0.4647 -0.5481
vn -0.8161 0.5453 0.1915
vn -0.4681 0.3128 0.8264
vn -0.4681 0.3128 -0.8264
vn -0.8161 0.5453 -0.1915
vn -0.6954 0.4647 0.5481
vn -0.1653 0.1104 0.9800
vn -0.3128 0.4681 0.8264
vn -0.3128 0.4681 -0.8264
vn -0.5453 0.8161 -0.1915
vn -0.4647 0.6954 0.5481
vn -0.1104 0.1653 0.9800
vn -0.1104 0.1653 -0.9800
vn -0.4647 0.6954 -0.5481
vn -0.5453 0.8161 0.1915
vn -0.1098 0.5522 -0.8264
vn -0.1915 0.9626 -0.1915
vn -0.1632 0.8203 0.5481
vn -0.0388 0.1949 0.9800
vn -0.0388 0.1949 -0.9800
vn -0.1632 0.8203 -0.5481
vn -0.1915 0.9626 0.1915
vn -0.1098 0.5522 0.8264
vn 0.0388 0.1949 0.9800
vn 0.0388 0.1949 -0.9800
vn 0.1632 0.8203 -0.5481
vn 0.1915 0.9626 0.1915
vn 0.1098 0.5522 0.8264
vn 0.1098 0.5522 -0.8264
vn 0.1915 0.9626 -0.1915
vn 0.1632 0.8203 0.5481
usemtl Material.001
s off
f 67/106/45 177/107/45 72/108/45 73/109/45
f 66/110/46 65/111/46 70/112/46 71/113/46
f 176/114/47 118/115/47 69/116/47
f 140/117/48 68/118/48 75/119/48
f 178/120/49 67/106/49 73/109/49 74/121/49
f 177/107/50 66/110/50 71/113/50 72/108/50
f 65/111/51 176/114/51 69/116/51 70/112/51
f 68/118/52 178/120/52 74/121/52 75/119/52
f 140/117/53 75/119/53 82/122/53
f 74/121/54 73/109/54 80/123/54 81/124/54
f 72/108/55 71/113/55 78/125/55 79/126/55
f 70/112/56 69/116/56 76/127/56 77/128/56
f 75/119/57 74/121/57 81/124/57 82/122/57
f 73/109/58 72/108/58 79/126/58 80/123/58
f 71/113/59 70/112/59 77/128/59 78/125/59
f 69/116/60 118/115/60 76/127/60
f 77/128/61 76/127/61 83/129/61 84/130/61
f 82/122/62 81/124/62 88/131/62 89/132/62
f 80/123/63 79/126/63 86/133/63 87/134/63
f 78/125/64 77/128/64 84/130/64 85/135/64
f 76/127/65 118/115/65 83/129/65
f 140/117/66 82/122/66 89/132/66
f 81/124/67 80/123/67 87/134/67 88/131/67
f 79/126/68 78/125/68 85/135/68 86/133/68
f 89/136/69 88/137/69 95/138/69 96/139/69
f 87/140/70 86/141/70 93/142/70 94/143/70
f 85/144/71 84/145/71 91/146/71 92/147/71
f 83/148/72 118/115/72 90/149/72
f 140/117/73 89/136/73 96/139/73
f 88/137/74 87/140/74 94/143/74 95/138/74
f 86/141/75 85/144/75 92/147/75 93/142/75
f 84/145/76 83/148/76 90/149/76 91/146/76
f 90/149/77 118/115/77 97/150/77
f 140/117/78 96/139/78 103/151/78
f 95/138/79 94/143/79 101/152/79 102/153/79
f 93/142/80 92/147/80 99/154/80 100/155/80
f 91/146/81 90/149/81 97/150/81 98/156/81
f 96/139/82 95/138/82 102/153/82 103/151/82
f 94/143/83 93/142/83 100/155/83 101/152/83
f 92/147/84 91/146/84 98/156/84 99/154/84
f 102/153/85 101/152/85 108/157/85 109/158/85
f 100/155/86 99/154/86 106/159/86 107/160/86
f 98/156/87 97/150/87 104/161/87 105/162/87
f 103/151/88 102/153/88 109/158/88 110/163/88
f 101/152/89 100/155/89 107/160/89 108/157/89
f 99/154/90 98/156/90 105/162/90 106/159/90
f 97/150/91 118/115/91 104/161/91
f 140/117/92 103/151/92 110/163/92
f 110/163/93 109/158/93 116/164/93 117/165/93
f 108/157/94 107/160/94 114/166/94 115/167/94
f 106/159/95 105/162/95 112/168/95 113/169/95
f 104/161/96 118/115/96 111/170/96
f 140/117/97 110/163/97 117/165/97
f 109/158/98 108/157/98 115/167/98 116/164/98
f 107/160/99 106/159/99 113/169/99 114/166/99
f 105/162/100 104/161/100 111/170/100 112/168/100
f 115/167/101 114/166/101 122/171/101 123/172/101
f 113/169/102 112/168/102 120/173/102 121/174/102
f 111/170/103 118/115/103 119/175/103
f 140/117/104 117/165/104 125/176/104
f 116/164/105 115/167/105 123/172/105 124/177/105
f 114/166/106 113/169/106 121/174/106 122/171/106
f 112/168/107 111/170/107 119/175/107 120/173/107
f 117/165/108 116/164/108 124/177/108 125/176/108
f 140/117/109 125/176/109 132/178/109
f 124/177/110 123/172/110 130/179/110 131/180/110
f 122/171/111 121/174/111 128/181/111 129/182/111
f 120/173/112 119/175/112 126/183/112 127/184/112
f 125/176/113 124/177/113 131/180/113 132/178/113
f 123/172/114 122/171/114 129/182/114 130/179/114
f 121/174/115 120/173/115 127/184/115 128/181/115
f 119/175/116 118/115/116 126/183/116
f 129/182/117 128/181/117 135/185/117 136/186/117
f 127/184/118 126/183/118 133/187/118 134/188/118
f 132/178/119 131/180/119 138/189/119 139/190/119
f 130/179/120 129/182/120 136/186/120 137/191/120
f 128/181/121 127/184/121 134/188/121 135/185/121
f 126/183/122 118/115/122 133/187/122
f 140/117/123 132/178/123 139/190/123
f 131/180/124 130/179/124 137/191/124 138/189/124
f 139/190/125 138/189/125 146/192/125 147/193/125
f 137/191/126 136/186/126 144/194/126 145/195/126
f 135/185/127 134/188/127 142/196/127 143/197/127
f 133/187/128 118/115/128 141/198/128
f 140/117/129 139/190/129 147/193/129
f 138/189/130 137/191/130 145/195/130 146/192/130
f 136/186/131 135/185/131 143/197/131 144/194/131
f 134/188/132 133/187/132 141/198/132 142/196/132
f 143/197/133 142/196/133 149/199/133 150/200/133
f 141/198/134 118/115/134 148/201/134
f 140/117/135 147/193/135 154/202/135
f 146/192/136 145/195/136 152/203/136 153/204/136
f 144/194/137 143/197/137 150/200/137 151/205/137
f 142/196/138 141/198/138 148/201/138 149/199/138
f 147/193/139 146/192/139 153/204/139 154/202/139
f 145/195/140 144/194/140 151/205/140 152/203/140
f 140/117/141 154/202/141 161/206/141
f 153/204/142 152/203/142 159/207/142 160/208/142
f 151/205/143 150/200/143 157/209/143 158/210/143
f 149/199/144 148/201/144 155/211/144 156/212/144
f 154/202/145 153/204/145 160/208/145 161/206/145
f 152/203/146 151/205/146 158/210/146 159/207/146
f 150/200/147 149/199/147 156/212/147 157/209/147
f 148/201/148 118/115/148 155/211/148
f 156/212/149 155/211/149 162/213/149 163/214/149
f 161/206/150 160/208/150 167/215/150 168/216/150
f 159/207/151 158/210/151 165/217/151 166/218/151
f 157/209/152 156/212/152 163/214/152 164/219/152
f 155/211/153 118/115/153 162/213/153
f 140/117/154 161/206/154 168/216/154
f 160/208/155 159/207/155 166/218/155 167/215/155
f 158/210/156 157/209/156 164/219/156 165/217/156
f 168/216/157 167/215/157 174/220/157 175/221/157
f 166/218/158 165/217/158 172/222/158 173/223/158
f 164/219/159 163/214/159 170/224/159 171/225/159
f 162/213/160 118/115/160 169/226/160
f 140/117/161 168/216/161 175/221/161
f 167/215/162 166/218/162 173/223/162 174/220/162
f 165/217/163 164/219/163 171/225/163 172/222/163
f 163/214/164 162/213/164 169/226/164 170/224/164
f 169/226/165 118/115/165 176/114/165
f 140/117/166 175/221/166 68/118/166
f 174/220/167 173/223/167 67/106/167 178/120/167
f 172/222/168 171/225/168 66/110/168 177/107/168
f 170/224/169 169/226/169 176/114/169 65/111/169
f 175/221/170 174/220/170 178/120/170 68/118/170
f 173/223/171 172/222/171 177/107/171 67/106/171
f 171/225/172 170/224/172 65/111/172 66/110/172
